<svg version="1.0" xmlns="http://www.w3.org/2000/svg"
 width="391.000000pt" height="129.000000pt" viewBox="0 0 391.000000 129.000000"
 preserveAspectRatio="xMidYMid meet">

<g transform="translate(0.000000,129.000000) scale(0.100000,-0.100000)"
fill="#000000" stroke="none">
<path d="M3165 1093 c-283 -39 -523 -188 -621 -388 -135 -276 1 -539 325 -627
99 -27 369 -30 505 -5 49 9 90 18 92 20 2 2 14 49 28 106 20 83 21 101 9 97
-8 -3 -60 -15 -116 -27 -259 -53 -467 37 -518 226 -15 53 -6 141 19 197 62
140 249 231 443 215 77 -6 129 -26 181 -67 20 -17 43 -30 51 -30 10 0 26 40
49 123 41 142 48 128 -80 153 -68 13 -291 17 -367 7z"/>
<path d="M366 1065 c-7 -29 -1 -45 18 -45 28 0 48 -38 44 -82 -6 -60 -173
-659 -197 -707 -23 -44 -65 -81 -92 -81 -21 0 -39 -28 -39 -60 0 -20 2 -20
267 -18 l267 3 10 34 c8 26 7 36 -3 39 -7 2 -24 14 -38 26 l-26 23 44 161 c24
89 47 162 50 162 3 0 23 -26 44 -57 73 -110 203 -279 244 -315 60 -55 118 -69
318 -75 l172 -6 11 27 c15 40 13 43 -26 56 -20 7 -51 25 -69 42 -29 25 -277
385 -291 422 -7 18 441 375 503 401 52 22 63 31 63 58 0 16 -19 17 -269 17
l-269 0 -6 -25 c-8 -30 -1 -45 19 -45 23 0 39 -38 24 -57 -19 -23 -431 -334
-436 -329 -6 6 73 293 92 333 8 18 29 40 47 49 18 9 34 17 35 18 1 0 4 13 8
29 l7 27 -260 0 -260 0 -6 -25z"/>
<path d="M1680 1076 c0 -8 -2 -20 -5 -28 -3 -7 8 -20 25 -30 17 -9 35 -29 40
-43 10 -27 10 -29 -176 -695 -30 -108 -54 -199 -54 -203 0 -4 103 -7 230 -7
l229 0 10 37 c6 20 9 37 8 37 -17 5 -45 28 -56 48 -13 23 -11 38 24 167 l39
141 110 0 c121 -1 191 -12 218 -37 10 -9 21 -13 24 -10 4 3 17 49 30 102 12
53 26 105 29 115 6 19 1 20 -175 20 -142 0 -181 3 -178 13 3 6 15 51 28 100
l23 87 164 0 c176 0 230 -11 240 -50 3 -11 14 -20 24 -20 11 0 19 2 19 4 0 1
14 58 30 124 17 67 30 126 30 132 0 7 -157 10 -465 10 -395 0 -465 -2 -465
-14z"/>
<path d="M3696 1038 c-34 -48 -4 -108 52 -108 27 0 62 26 62 46 0 4 -7 -2 -16
-14 -30 -43 -104 -18 -104 36 0 11 12 30 26 41 19 15 22 21 11 21 -9 0 -23
-10 -31 -22z"/>
<path d="M3761 1057 c2 -1 14 -11 27 -21 12 -11 22 -16 22 -13 0 10 -31 37
-42 37 -6 0 -9 -1 -7 -3z"/>
<path d="M3720 993 c1 -36 1 -37 16 -18 15 19 16 19 29 2 12 -16 13 -15 13 17
0 27 -4 36 -16 36 -15 0 -15 -2 -2 -10 8 -5 11 -12 8 -16 -11 -10 -40 4 -33
16 3 5 1 10 -4 10 -6 0 -11 -17 -11 -37z" />
</g>
</svg>
